<svg width="285" height="90" viewBox="0 0 285 90" fill="none" xmlns="http://www.w3.org/2000/svg">
<g id="LOGO mobile">
<g id="henk">
<g id="g10459">
<path id="path5195" d="M71.8555 45.0017C71.8555 22.5601 104.644 5.84912 142.492 5.84912C180.34 5.84912 213.145 22.5601 213.145 45.0017C213.145 67.4502 180.34 84.12 142.492 84.12C104.644 84.12 71.8555 67.4502 71.8555 45.0017Z" fill="white"/>
<path id="path5197" fill-rule="evenodd" clip-rule="evenodd" d="M142.492 4C182.515 4 215 22.3718 215 45.0017C215 67.6351 182.515 86 142.492 86C102.485 86 70 67.6351 70 45.0017C70 22.3718 102.485 4 142.492 4ZM142.492 7.69833C104.509 7.69833 73.66 24.4435 73.66 45.0017C73.66 65.5685 104.509 82.2743 142.492 82.2743C180.475 82.2743 211.323 65.5685 211.323 45.0017C211.323 24.4435 180.475 7.69833 142.492 7.69833ZM129.757 48.938H115.489C115.657 52.5028 117.631 54.1551 120.582 54.1551C122.775 54.1551 124.276 52.9017 124.664 51.6399H129.336C128.138 55.9529 124.664 57.9493 120.38 57.9493C114.308 57.9493 110.53 53.7082 110.53 47.6505C110.53 41.7828 114.527 37.314 120.38 37.314C126.958 37.314 130.129 42.918 129.757 48.938ZM120.245 41.0089C117.276 41.0089 115.758 43.0139 115.522 45.5787H124.782C124.428 42.8409 123.298 41.0089 120.245 41.0089ZM191.539 48.938H177.27C177.422 52.5028 179.412 54.1551 182.347 54.1551C184.556 54.1551 186.057 52.9017 186.445 51.6399H191.117C189.92 55.9529 186.445 57.9493 182.161 57.9493C176.072 57.9493 172.311 53.7082 172.311 47.6505C172.311 41.7828 176.309 37.314 182.161 37.314C188.739 37.314 191.91 42.918 191.539 48.938ZM182.009 41.0089C179.058 41.0089 177.54 43.0139 177.287 45.5787H186.563C186.209 42.8409 185.079 41.0089 182.009 41.0089ZM85.5676 57.4185H90.8637V45.7568H102.299V57.4185H107.595V30.3334H102.299V41.4233H90.8637V30.3334H85.5676V57.4185ZM132.675 57.4185H137.668V46.8303C137.668 42.8546 139.051 41.2264 141.918 41.2264C144.381 41.2264 145.494 42.817 145.494 46.0342V57.4185H150.469V45.3784C150.469 40.5329 149.053 37.314 143.402 37.314C141.176 37.314 138.848 38.3755 137.516 40.5706H137.398V37.8448H132.675V57.4185ZM154.72 57.4185H159.695V46.8183L167.049 57.4185H173.239L165.143 46.4348L172.311 37.8448H166.374L159.695 46.2841V30.3334H154.72V57.4185ZM194.457 57.4185H199.432V30.3334H194.457V57.4185Z" fill="#EC1B23"/>
</g>
</g>
</g>
</svg>
